<svg xmlns="http://www.w3.org/2000/svg" viewBox="0 0 43 39.61"><defs><style>.cls-1{fill:#258989;}</style></defs><title>Fichier 14</title><g id="Calque_2" data-name="Calque 2"><g id="Calque_1-2" data-name="Calque 1"><path class="cls-1" d="M18.17,21.53a7.18,7.18,0,0,1-2.37-.38,2.38,2.38,0,0,0,0,.39,2.4,2.4,0,0,0,4.8,0,2.38,2.38,0,0,0,0-.39A7.23,7.23,0,0,1,18.17,21.53Z"/><path class="cls-1" d="M18.17,0A16.86,16.86,0,0,0,1.46,17a17.18,17.18,0,0,0,1.59,7.22A14.81,14.81,0,0,0,14,31.4h0a2,2,0,0,1,1.53,2.89A18.29,18.29,0,0,1,13,38a9.07,9.07,0,0,0,12.83-2.49l5.75-8.27,0,0A17.13,17.13,0,0,0,34.87,17,16.86,16.86,0,0,0,18.17,0ZM7.9,23.77A5.92,5.92,0,0,1,4,18.08a5.8,5.8,0,0,1,10.5-3.15,4.45,4.45,0,0,0,3.67,2.22h0a4.42,4.42,0,0,0,3.66-2.22,5.81,5.81,0,0,1,10.51,3.15,5.92,5.92,0,0,1-3.9,5.69l-5.09,2c-1.63.64-3.41,1.56-5.19,1.56s-3.56-.92-5.18-1.56Z"/><circle class="cls-1" cx="9.84" cy="18.37" r="2.44"/><circle class="cls-1" cx="26.52" cy="18.37" r="2.44"/><path class="cls-1" d="M27.41,36.64A16.71,16.71,0,0,0,43,25.1a.29.29,0,0,0-.28-.38H35.26a19.42,19.42,0,0,1-2.08,3.61l-5.77,8.31Z"/><path class="cls-1" d="M10.08,38.05a16.65,16.65,0,0,0,3.48-4.3.29.29,0,0,0-.22-.43A16.73,16.73,0,0,1,1.08,24.75h0a9.07,9.07,0,0,0,9,13.3Z"/></g></g></svg>