<svg width="34" height="32" viewBox="0 0 34 32" fill="none" xmlns="http://www.w3.org/2000/svg">
<path d="M13.3875 0.249793C8.93958 1.21313 5.29375 3.60729 2.78542 7.23396C-1.60417 13.6231 -0.729167 22.194 4.87083 27.6623C6.54792 29.3056 9.1 30.8923 11.025 31.5015C11.7396 31.7281 11.8271 31.7281 12.1479 31.5156C12.4979 31.289 12.5125 31.2323 12.5125 29.6031V27.9315L11.2292 28.0023C9.72708 28.0731 8.56041 27.8181 7.86041 27.2373C7.6125 27.039 7.13125 26.359 6.79583 25.7356C6.24167 24.6873 5.83333 24.2056 4.69583 23.2281C4.31667 22.9023 4.30208 22.8881 4.56458 22.704C5.19167 22.2506 6.46042 22.6898 7.2625 23.6248C8.6625 25.2823 9.20208 25.7215 10.0042 25.8915C10.7187 26.0331 11.375 25.9765 12.3667 25.6931C12.4979 25.6506 12.6729 25.3531 12.7604 25.0131C12.8479 24.6873 13.0812 24.1915 13.2708 23.9223L13.6208 23.4265L12.4396 23.1998C9.96041 22.704 8.42917 21.8398 7.42292 20.3665C6.48958 19.0065 6.18333 17.8306 6.16875 15.6348C6.16875 13.5665 6.40208 12.7165 7.32083 11.5548C7.72917 11.0448 7.77291 10.889 7.65625 10.5915C7.4375 10.0815 7.49583 7.92813 7.72916 7.27646C7.91875 6.79479 8.02083 6.70979 8.41458 6.66729C9.07083 6.59646 10.2958 7.00729 11.5354 7.68729L12.6 8.28229L13.5333 8.06979C14.8604 7.77229 18.8417 7.78646 20.0375 8.06979L20.9417 8.29646L21.7875 7.80063C22.9104 7.14896 24.3396 6.63896 25.0542 6.63896C25.6229 6.63896 25.6229 6.65313 25.8562 7.37563C26.1042 8.21146 26.1479 9.72729 25.9292 10.4498C25.8125 10.8748 25.8417 11.0023 26.1625 11.4131C27.7521 13.4531 27.9271 16.839 26.5854 19.6156C25.6812 21.4431 23.7708 22.7181 21.2042 23.1856L19.9792 23.4123L20.4312 24.1915L20.8979 24.9848L20.9417 28.144L21 31.3031L21.3646 31.5298C21.7 31.7423 21.7729 31.7423 22.4729 31.5015C23.6396 31.119 25.6375 30.0706 26.7312 29.2631C33.2354 24.5315 35.3354 16.0456 31.7333 8.99063C29.6187 4.83979 25.6229 1.65229 21.0437 0.462293C19.0458 -0.0477073 15.2833 -0.161041 13.3875 0.249793Z" fill="white"/>
</svg>
