
<svg width="256" height="256" viewBox="0 0 256 256" fill="none" xmlns="http://www.w3.org/2000/svg">
<path d="M196 0H60C26.8629 0 0 26.8629 0 60V196C0 229.137 26.8629 256 60 256H196C229.137 256 256 229.137 256 196V60C256 26.8629 229.137 0 196 0Z" fill="#0A66C2"/>
<path d="M184.715 217.685H213.985C215.046 217.685 216.063 217.264 216.813 216.514C217.563 215.764 217.985 214.747 217.985 213.686L218 151.844C218 119.521 211.035 94.676 173.262 94.676C158.903 94.142 145.362 101.544 138.055 113.904C138.019 113.964 137.965 114.011 137.9 114.037C137.835 114.063 137.764 114.068 137.696 114.049C137.629 114.031 137.569 113.991 137.527 113.936C137.484 113.881 137.461 113.813 137.46 113.743V101.66C137.46 100.599 137.039 99.5817 136.288 98.8316C135.538 98.0814 134.521 97.66 133.46 97.66H105.683C104.622 97.66 103.605 98.0814 102.855 98.8316C102.104 99.5817 101.683 100.599 101.683 101.66V213.68C101.683 214.741 102.104 215.758 102.855 216.508C103.605 217.259 104.622 217.68 105.683 217.68H134.951C136.012 217.68 137.029 217.259 137.779 216.508C138.53 215.758 138.951 214.741 138.951 213.68V158.307C138.951 142.65 141.921 127.487 161.332 127.487C180.467 127.487 180.715 145.403 180.715 159.321V213.685C180.715 214.746 181.136 215.763 181.887 216.513C182.637 217.264 183.654 217.685 184.715 217.685ZM38 59.628C38 71.492 47.767 81.254 59.632 81.254C71.494 81.253 81.255 71.485 81.255 59.623C81.253 47.761 71.491 38 59.628 38C47.762 38 38 47.764 38 59.628ZM44.959 217.685H74.266C75.3269 217.685 76.3443 217.264 77.0944 216.513C77.8446 215.763 78.266 214.746 78.266 213.685V101.66C78.266 100.599 77.8446 99.5817 77.0944 98.8316C76.3443 98.0814 75.3269 97.66 74.266 97.66H44.959C43.8981 97.66 42.8807 98.0814 42.1306 98.8316C41.3804 99.5817 40.959 100.599 40.959 101.66V213.685C40.959 214.746 41.3804 215.763 42.1306 216.513C42.8807 217.264 43.8981 217.685 44.959 217.685Z" fill="white"/>
</svg>
