<svg width="239" height="191" viewBox="0 0 239 191" fill="none" xmlns="http://www.w3.org/2000/svg">
<path d="M23.9 191C17.3275 191 11.703 188.664 7.0266 183.993C2.35017 179.321 0.00796667 173.699 0 167.125V23.875C0 17.3094 2.3422 11.6908 7.0266 7.01925C11.711 2.34771 17.3355 0.00795833 23.9 0H215.1C221.672 0 227.301 2.33975 231.985 7.01925C236.67 11.6987 239.008 17.3173 239 23.875V167.125C239 173.691 236.662 179.313 231.985 183.993C227.309 188.672 221.68 191.008 215.1 191H23.9ZM119.5 107.437L23.9 47.75V167.125H215.1V47.75L119.5 107.437ZM119.5 83.5625L215.1 23.875H23.9L119.5 83.5625ZM23.9 47.75V23.875V167.125V47.75Z" fill="black"/>
</svg>
