<svg width="249" height="249" viewBox="0 0 249 249" fill="none" xmlns="http://www.w3.org/2000/svg">
<path d="M50.0767 107.762C69.9967 146.91 102.09 179.003 141.238 198.923L171.672 168.49C175.545 164.617 180.94 163.51 185.782 165.032C201.275 170.15 217.875 172.917 235.167 172.917C238.835 172.917 242.354 174.374 244.948 176.968C247.543 179.563 249 183.081 249 186.75V235.167C249 238.835 247.543 242.354 244.948 244.948C242.354 247.543 238.835 249 235.167 249C172.797 249 112.981 224.224 68.8787 180.121C24.7764 136.019 0 76.2034 0 13.8333C0 10.1645 1.45744 6.64594 4.05169 4.05169C6.64594 1.45744 10.1645 0 13.8333 0H62.25C65.9188 0 69.4374 1.45744 72.0316 4.05169C74.6259 6.64594 76.0833 10.1645 76.0833 13.8333C76.0833 31.125 78.85 47.725 83.9683 63.2183C85.49 68.06 84.3833 73.455 80.51 77.3283L50.0767 107.762Z" fill="#000018"/>
</svg>
